<svg width="14" height="7" viewBox="0 0 14 7" fill="none" xmlns="http://www.w3.org/2000/svg">
<path d="M12.1506 0.154199L6.52789 5.6352L0.905137 0.154199C0.804681 0.0560651 0.66982 0.00112492 0.529387 0.00112492C0.388954 0.00112492 0.254093 0.0560651 0.153637 0.154199C0.104995 0.201858 0.066351 0.258745 0.0399697 0.321527C0.0135885 0.384309 0 0.451724 0 0.519823C0 0.587923 0.0135885 0.655338 0.0399697 0.71812C0.066351 0.780902 0.104995 0.837788 0.153637 0.885448L6.13526 6.71745C6.24031 6.81984 6.3812 6.87714 6.52789 6.87714C6.67458 6.87714 6.81547 6.81984 6.92051 6.71745L12.9021 0.886574C12.9511 0.838878 12.9901 0.781852 13.0166 0.718861C13.0432 0.655871 13.0569 0.588194 13.0569 0.519823C13.0569 0.451453 13.0432 0.383775 13.0166 0.320785C12.9901 0.257795 12.9511 0.200769 12.9021 0.153073C12.8017 0.0549396 12.6668 0 12.5264 0C12.386 0 12.2511 0.0549396 12.1506 0.153073V0.154199Z" fill="black"/>
</svg>
