<svg width="29" height="30" viewBox="0 0 29 30" fill="none" xmlns="http://www.w3.org/2000/svg">
<g clip-path="url(#clip0_1676_5310)">
<path d="M14.5 29.0625C22.0076 29.0625 28.0938 22.7665 28.0938 15C28.0938 7.2335 22.0076 0.9375 14.5 0.9375C6.99238 0.9375 0.90625 7.2335 0.90625 15C0.90625 22.7665 6.99238 29.0625 14.5 29.0625Z" fill="#96D7FF"/>
<path d="M2.12953 15.9352C2.13183 13.3987 2.79727 10.9101 4.05537 8.73292C5.31348 6.55576 7.11739 4.77115 9.27603 3.56814C11.4347 2.36512 13.8677 1.78849 16.3173 1.89932C18.7669 2.01016 21.1419 2.80434 23.1908 4.19773C21.7795 2.91382 20.1261 1.94661 18.3352 1.35717C16.5442 0.767731 14.6546 0.568873 12.7856 0.773154C10.9165 0.977436 9.10879 1.58042 7.47646 2.54402C5.84412 3.50762 4.42267 4.81091 3.30188 6.37157C2.18108 7.93224 1.3853 9.71637 0.964774 11.6113C0.544251 13.5062 0.508129 15.4708 0.85869 17.3808C1.20925 19.2909 1.93888 21.1051 3.00149 22.7087C4.0641 24.3123 5.43662 25.6706 7.03235 26.6977C5.5044 25.3835 4.27355 23.7388 3.42647 21.8793C2.5794 20.0198 2.13669 17.9908 2.12953 15.9352Z" fill="#86C3EF"/>
<path d="M14.4999 5.71094C12.7461 5.71342 11.0647 6.43525 9.8246 7.71816C8.58445 9.00108 7.88667 10.7404 7.88428 12.5547V26.7109C7.88478 26.8841 7.93162 27.0537 8.0196 27.2009C8.10758 27.3482 8.23326 27.4674 8.38271 27.5453C10.2774 28.5438 12.3735 29.0643 14.4999 29.0643C16.6263 29.0643 18.7224 28.5438 20.6171 27.5453C20.7665 27.4674 20.8922 27.3482 20.9802 27.2009C21.0682 27.0537 21.115 26.8841 21.1155 26.7109V12.5547C21.1131 10.7404 20.4154 9.00108 19.1752 7.71816C17.9351 6.43525 16.2537 5.71342 14.4999 5.71094Z" fill="#BF9E99"/>
<path d="M14.5 29.0641C17.8884 29.065 21.1529 27.7463 23.644 25.3703C23.657 25.2991 23.657 25.2259 23.644 25.1547C23.2434 23.9159 22.4767 22.8386 21.4523 22.0749C20.4278 21.3112 19.1974 20.8997 17.9347 20.8984H11.1378C9.87662 20.9017 8.6482 21.3141 7.62557 22.0777C6.60294 22.8412 5.83764 23.9174 5.43748 25.1547C5.42448 25.2259 5.42448 25.2991 5.43748 25.3703C7.90794 27.7266 11.1398 29.0439 14.5 29.0641Z" fill="#FF9797"/>
<path d="M5.89967 25.6797C6.3027 24.4424 7.06997 23.3667 8.09388 22.6034C9.11779 21.8401 10.347 21.4275 11.609 21.4234H18.415C19.8796 21.4296 21.2914 21.9898 22.3844 22.9984C21.8217 22.3414 21.1312 21.8148 20.3582 21.4529C19.5851 21.091 18.7469 20.9021 17.8984 20.8984H11.1015C9.84658 20.9095 8.62624 21.3255 7.61084 22.0885C6.59544 22.8515 5.83565 23.9235 5.43748 25.1547C5.42448 25.2259 5.42448 25.2991 5.43748 25.3703C5.60061 25.5297 5.78186 25.6703 5.95405 25.8203C5.93138 25.7755 5.91316 25.7283 5.89967 25.6797Z" fill="#E47979"/>
<path d="M16.947 14.8438H12.0532C11.8129 14.8437 11.5824 14.9425 11.4124 15.1183C11.2425 15.2942 11.147 15.5326 11.147 15.7812V21.8469C11.1477 22.0013 11.1854 22.1531 11.2565 22.2889C11.3277 22.4246 11.4301 22.5401 11.5548 22.625L14.0017 24.3125C14.1496 24.4133 14.3229 24.467 14.5001 24.467C14.6773 24.467 14.8506 24.4133 14.9985 24.3125L17.4454 22.625C17.5701 22.5401 17.6725 22.4246 17.7437 22.2889C17.8148 22.1531 17.8525 22.0013 17.8532 21.8469V15.7812C17.8532 15.5326 17.7577 15.2942 17.5878 15.1183C17.4178 14.9425 17.1873 14.8438 16.947 14.8438Z" fill="#ECC5B4"/>
<path d="M19.4844 11.9688H9.51562C8.79457 11.9687 8.10304 12.2651 7.59318 12.7925C7.08331 13.32 6.79688 14.0353 6.79688 14.7812C6.79688 15.5272 7.08331 16.2425 7.59318 16.77C8.10304 17.2974 8.79457 17.5938 9.51562 17.5938H19.4844C20.2054 17.5938 20.897 17.2974 21.4068 16.77C21.9167 16.2425 22.2031 15.5272 22.2031 14.7812C22.2031 14.0353 21.9167 13.32 21.4068 12.7925C20.897 12.2651 20.2054 11.9688 19.4844 11.9688Z" fill="#ECC5B4"/>
<path d="M16.7295 8.4375H12.2707C11.4319 8.4375 10.6274 8.78221 10.0343 9.39581C9.44113 10.0094 9.10791 10.8416 9.10791 11.7094V14.8594C9.10791 16.3388 9.67601 17.7576 10.6872 18.8037C11.6985 19.8498 13.07 20.4375 14.5001 20.4375C15.9302 20.4375 17.3017 19.8498 18.313 18.8037C19.3242 17.7576 19.8923 16.3388 19.8923 14.8594V11.6813C19.8851 10.8184 19.5487 9.99337 18.9564 9.38585C18.364 8.77832 17.5636 8.43747 16.7295 8.4375Z" fill="#F4DAB7"/>
<path d="M21.0251 11.8698H21.0795C20.9761 10.7788 20.6201 9.72965 20.0418 8.81108C19.4634 7.89251 18.6797 7.13157 17.7569 6.59264C16.8341 6.05372 15.7994 5.75267 14.7403 5.71497C13.6813 5.67728 12.629 5.90404 11.6726 6.37608C11.6041 6.61541 11.6235 6.87249 11.727 7.09795C12.3416 8.42189 13.2555 9.57313 14.3914 10.4542C15.773 11.5228 17.4512 12.1015 19.1764 12.1042C19.7992 12.0994 20.4195 12.0207 21.0251 11.8698Z" fill="#D6B5B0"/>
<path d="M17.2187 6.33634C16.213 5.86473 15.1092 5.66136 14.008 5.74484C12.9068 5.82832 11.8434 6.19596 10.915 6.81419C9.98659 7.43241 9.22276 8.28148 8.69332 9.28381C8.16388 10.2861 7.88573 11.4098 7.88428 12.552V12.9176C8.24117 12.974 8.60169 13.0022 8.96272 13.002C10.1669 13.0006 11.3567 12.7311 12.4513 12.2118C13.5459 11.6926 14.5197 10.9357 15.3065 9.99259C16.1848 8.94036 16.8367 7.70678 17.2187 6.37384V6.33634Z" fill="#D6B5B0"/>
</g>
<defs>
<clipPath id="clip0_1676_5310">
<rect width="29" height="30" fill="white"/>
</clipPath>
</defs>
</svg>
